<?xml version="1.0" encoding="UTF-8"?>
<svg xmlns="http://www.w3.org/2000/svg" width="194" height="10" viewBox="0 0 194 10" fill="none">
  <path d="M188.743 8.81908L188.689 8.81621L188.636 8.80565C187.666 8.61207 186.699 8.47307 185.711 8.33083C185.252 8.26487 184.789 8.1982 184.318 8.12509L184.314 8.12447C180.261 7.47314 176.2 7.10949 172.108 6.7431C170.078 6.56132 168.04 6.37887 165.992 6.16028C123.088 3.61503 80.1796 5.34052 37.2565 7.06658C25.8877 7.52376 14.5179 7.98097 3.14694 8.35888C2.27048 8.39869 1.68241 7.7795 1.45466 7.17115C1.22796 6.5656 1.2617 5.7301 1.87476 5.1597L2.02512 5.0198L2.22579 4.97603C4.42729 4.49579 6.72171 4.39786 8.97834 4.36433C9.47199 4.35699 9.96285 4.3527 10.4509 4.34844C12.2169 4.333 13.9466 4.31788 15.6412 4.15997L15.6642 4.15784L15.6872 4.15711C26.2811 3.82283 36.8852 3.40577 47.4962 2.98844C88.8712 1.36117 130.351 -0.270227 171.738 2.98542L171.738 2.98538L171.745 2.98605C177.169 3.46767 182.599 4.02762 188.005 4.92537L188.069 4.93606L188.131 4.9577C188.34 5.03113 188.678 5.07675 189.169 5.13219C189.197 5.13535 189.226 5.13854 189.255 5.14177C189.685 5.19006 190.199 5.24766 190.66 5.3628C191.132 5.48076 191.714 5.69605 192.085 6.18085C192.504 6.72705 192.511 7.4072 192.256 8.10701L192.229 8.18303L192.185 8.25139C191.938 8.64193 191.605 8.89812 191.215 9.02606C190.847 9.14666 190.481 9.1361 190.179 9.09739C189.915 9.0635 189.646 8.99918 189.424 8.94645C189.396 8.93972 189.369 8.93317 189.342 8.92691C189.083 8.86581 188.897 8.82722 188.743 8.81908Z" fill="#2AD884" stroke="#2AD884" stroke-width="1.5"></path>
</svg>
